<svg width="8" height="14" viewBox="0 0 8 14" fill="none" xmlns="http://www.w3.org/2000/svg">
<path d="M0.491146 7.76416L6.15115 13.4142C6.24411 13.5079 6.35471 13.5823 6.47657 13.6331C6.59843 13.6838 6.72913 13.71 6.86115 13.71C6.99316 13.71 7.12386 13.6838 7.24572 13.6331C7.36758 13.5823 7.47818 13.5079 7.57115 13.4142C7.7574 13.2268 7.86194 12.9733 7.86194 12.7092C7.86194 12.445 7.7574 12.1915 7.57115 12.0042L2.62115 7.00416L7.57115 2.05416C7.7574 1.8668 7.86194 1.61335 7.86194 1.34916C7.86194 1.08498 7.7574 0.831526 7.57115 0.644163C7.47853 0.549675 7.36809 0.474505 7.24621 0.423008C7.12434 0.371511 6.99345 0.344713 6.86115 0.344164C6.72884 0.344713 6.59796 0.371511 6.47608 0.423008C6.35421 0.474505 6.24376 0.549675 6.15115 0.644163L0.491146 6.29416C0.389641 6.3878 0.308633 6.50146 0.253225 6.62796C0.197818 6.75446 0.169213 6.89106 0.169213 7.02916C0.169213 7.16726 0.197818 7.30387 0.253225 7.43037C0.308633 7.55687 0.389641 7.67052 0.491146 7.76416V7.76416Z" fill="black"/>
</svg>
