<svg width="20" height="20" viewBox="0 0 20 20" fill="none" xmlns="http://www.w3.org/2000/svg">
<path d="M5.50002 4.00002C5.20334 4.00002 4.91333 4.08799 4.66666 4.25281C4.41999 4.41763 4.22773 4.6519 4.1142 4.92599C4.00067 5.20008 3.97096 5.50168 4.02884 5.79265C4.08672 6.08362 4.22958 6.3509 4.43936 6.56068C4.64914 6.77046 4.91641 6.91332 5.20738 6.97119C5.49835 7.02907 5.79995 6.99937 6.07404 6.88584C6.34813 6.7723 6.5824 6.58005 6.74722 6.33337C6.91204 6.0867 7.00002 5.79669 7.00002 5.50002C7.00002 5.10219 6.84198 4.72066 6.56068 4.43936C6.27937 4.15805 5.89784 4.00002 5.50002 4.00002V4.00002ZM19.12 8.71002L10.71 0.290017C10.6166 0.197335 10.5058 0.12401 10.3839 0.0742455C10.2621 0.0244809 10.1316 -0.000744179 10 1.67143e-05H1.00002C0.7348 1.67143e-05 0.480446 0.105374 0.29291 0.29291C0.105374 0.480446 1.67143e-05 0.7348 1.67143e-05 1.00002V10C-0.000744179 10.1316 0.0244809 10.2621 0.0742455 10.3839C0.12401 10.5058 0.197335 10.6166 0.290017 10.71L8.71002 19.12C9.27252 19.6818 10.035 19.9974 10.83 19.9974C11.625 19.9974 12.3875 19.6818 12.95 19.12L19.12 13C19.6818 12.4375 19.9974 11.675 19.9974 10.88C19.9974 10.085 19.6818 9.32252 19.12 8.76002V8.71002ZM17.71 11.53L11.53 17.7C11.3427 17.8863 11.0892 17.9908 10.825 17.9908C10.5608 17.9908 10.3074 17.8863 10.12 17.7L2.00002 9.59002V2.00002H9.59002L17.71 10.12C17.8027 10.2135 17.876 10.3243 17.9258 10.4461C17.9756 10.5679 18.0008 10.6984 18 10.83C17.9989 11.0924 17.8948 11.3438 17.71 11.53V11.53Z" fill="#2F5E19"/>
</svg>
